<svg width="20" height="20" viewBox="0 0 20 20" fill="none" xmlns="http://www.w3.org/2000/svg">
<path d="M8.05991 3.44663C8.10582 2.96358 8.33019 2.515 8.68916 2.18853C9.04813 1.86206 9.51593 1.68115 10.0012 1.68115C10.4864 1.68115 10.9542 1.86206 11.3132 2.18853C11.6721 2.515 11.8965 2.96358 11.9424 3.44663C11.97 3.75868 12.0724 4.05948 12.2409 4.32358C12.4093 4.58768 12.639 4.8073 12.9103 4.96386C13.1816 5.12042 13.4867 5.2093 13.7997 5.22298C14.1126 5.23666 14.4243 5.17474 14.7082 5.04246C15.1492 4.84228 15.6488 4.81331 16.1099 4.9612C16.571 5.10909 16.9606 5.42326 17.2028 5.84255C17.4451 6.26185 17.5226 6.75627 17.4204 7.22961C17.3182 7.70294 17.0436 8.12131 16.6499 8.4033C16.3936 8.58317 16.1843 8.82214 16.0398 9.09998C15.8954 9.37783 15.8199 9.68639 15.8199 9.99955C15.8199 10.3127 15.8954 10.6213 16.0398 10.8991C16.1843 11.177 16.3936 11.4159 16.6499 11.5958C17.0436 11.8778 17.3182 12.2962 17.4204 12.7695C17.5226 13.2428 17.4451 13.7372 17.2028 14.1565C16.9606 14.5758 16.571 14.89 16.1099 15.0379C15.6488 15.1858 15.1492 15.1568 14.7082 14.9566C14.4243 14.8244 14.1126 14.7624 13.7997 14.7761C13.4867 14.7898 13.1816 14.8787 12.9103 15.0352C12.639 15.1918 12.4093 15.4114 12.2409 15.6755C12.0724 15.9396 11.97 16.2404 11.9424 16.5525C11.8965 17.0355 11.6721 17.4841 11.3132 17.8106C10.9542 18.137 10.4864 18.3179 10.0012 18.3179C9.51593 18.3179 9.04813 18.137 8.68916 17.8106C8.33019 17.4841 8.10582 17.0355 8.05991 16.5525C8.03236 16.2403 7.92999 15.9394 7.76146 15.6752C7.59294 15.411 7.36322 15.1913 7.09177 15.0347C6.82032 14.8782 6.51513 14.7893 6.20206 14.7757C5.88898 14.7621 5.57724 14.8242 5.29324 14.9566C4.85232 15.1568 4.35268 15.1858 3.89158 15.0379C3.43047 14.89 3.04089 14.5758 2.79864 14.1565C2.5564 13.7372 2.47884 13.2428 2.58104 12.7695C2.68325 12.2962 2.95791 11.8778 3.35158 11.5958C3.60793 11.4159 3.81718 11.177 3.96165 10.8991C4.10611 10.6213 4.18154 10.3127 4.18154 9.99955C4.18154 9.68639 4.10611 9.37783 3.96165 9.09998C3.81718 8.82214 3.60793 8.58317 3.35158 8.4033C2.95846 8.12117 2.68428 7.70296 2.58233 7.22995C2.48037 6.75694 2.55792 6.26291 2.7999 5.84389C3.04188 5.42487 3.431 5.11078 3.89165 4.96266C4.3523 4.81455 4.85156 4.84299 5.29241 5.04246C5.57637 5.17474 5.88803 5.23666 6.20099 5.22298C6.51396 5.2093 6.81902 5.12042 7.09036 4.96386C7.36169 4.8073 7.59132 4.58768 7.7598 4.32358C7.92827 4.05948 8.03064 3.75868 8.05824 3.44663" stroke="#364153" stroke-width="1.66667" stroke-linecap="round" stroke-linejoin="round"/>
<path d="M10 12.5C11.3807 12.5 12.5 11.3807 12.5 10C12.5 8.61929 11.3807 7.5 10 7.5C8.61929 7.5 7.5 8.61929 7.5 10C7.5 11.3807 8.61929 12.5 10 12.5Z" stroke="#364153" stroke-width="1.66667" stroke-linecap="round" stroke-linejoin="round"/>
</svg>
